<?xml version="1.0" standalone="no"?>
<!DOCTYPE svg PUBLIC "-//W3C//DTD SVG 20010904//EN"
 "http://www.w3.org/TR/2001/REC-SVG-20010904/DTD/svg10.dtd">
<svg version="1.0" xmlns="http://www.w3.org/2000/svg"
 width="140.000000pt" height="140.000000pt" viewBox="0 0 140.000000 140.000000"
 preserveAspectRatio="xMidYMid meet">

<g transform="translate(0.000000,140.000000) scale(0.100000,-0.100000)"
fill="#2e368f" stroke="none">
<path d="M545 1385 c-234 -58 -424 -233 -494 -455 -46 -145 -46 -284 0 -430
35 -110 78 -179 169 -270 96 -96 178 -146 300 -179 91 -26 254 -28 350 -6 149
35 303 140 395 270 65 91 64 95 -46 95 l-91 0 -77 75 c-72 69 -81 75 -120 75
-35 0 -47 -5 -68 -30 -46 -55 -142 -34 -159 35 -13 54 38 115 97 115 11 0 37
-16 56 -35 31 -31 41 -35 84 -35 48 0 51 -2 123 -75 l74 -75 101 0 101 0 15
36 c8 20 15 40 15 44 0 5 -58 10 -128 12 l-128 3 -73 72 -73 73 -176 0 -177 0
-27 -32 c-22 -27 -33 -33 -67 -33 -80 0 -120 85 -70 149 16 21 29 26 64 26 35
0 49 -6 72 -30 l28 -30 186 0 185 0 79 -75 78 -75 117 0 c128 0 130 1 130 61
l0 29 -136 0 -135 0 -79 75 -79 75 -309 0 -309 0 -36 -35 c-25 -24 -45 -35
-66 -35 -41 0 -80 37 -87 81 -5 28 -1 41 21 67 22 26 34 32 67 32 32 0 46 -6
68 -30 l28 -30 324 0 324 0 74 -75 74 -75 128 0 128 0 0 25 c0 65 -44 215 -84
285 -92 163 -245 280 -428 329 -89 24 -250 27 -333 6z"/>
</g>
</svg>
